{
  "accessors": [
    {
      "bufferView": 1,
      "componentType": 5126,
      "count": 11160,
      "max": [
        23.5,
        -0.0,
        27.37700080871582
      ],
      "min": [
        -23.49799919128418,
        -90.49299621582031,
        -27.371999740600586
      ],
      "type": "VEC3"
    },
    {
      "bufferView": 1,
      "byteOffset": 133920,
      "componentType": 5126,
      "count": 11160,
      "max": [
        1.0,
        1.0,
        0.9998739957809448
      ],
      "min": [
        -1.0,
        -1.0,
        -0.9999246001243591
      ],
      "type": "VEC3"
    },
    {
      "bufferView": 0,
      "componentType": 5125,
      "count": 51210,
      "type": "SCALAR"
    }
  ],
  "asset": {
    "extras": {
      "author": "matthewtbuck (https://sketchfab.com/matthewtbuck)",
      "license": "CC-BY-4.0 (http://creativecommons.org/licenses/by/4.0/)",
      "source": "https://sketchfab.com/3d-models/practice-model-f2f59225fee1467da13656b7486ab1f5",
      "title": "Practice Model"
    },
    "generator": "Sketchfab-11.87.0",
    "version": "2.0"
  },
  "bufferViews": [
    {
      "buffer": 0,
      "byteLength": 204840,
      "name": "floatBufferViews",
      "target": 34963
    },
    {
      "buffer": 0,
      "byteLength": 267840,
      "byteOffset": 204840,
      "byteStride": 12,
      "name": "floatBufferViews",
      "target": 34962
    }
  ],
  "buffers": [
    {
      "byteLength": 472680,
      "uri": "scene.bin"
    }
  ],
  "materials": [
    {
      "doubleSided": true,
      "name": "color_11909273",
      "pbrMetallicRoughness": {
        "baseColorFactor": [
          0.709804,
          0.721569,
          0.6,
          1.0
        ],
        "metallicFactor": 0.0
      }
    }
  ],
  "meshes": [
    {
      "name": "Object_0",
      "primitives": [
        {
          "attributes": {
            "NORMAL": 1,
            "POSITION": 0
          },
          "indices": 2,
          "material": 0,
          "mode": 4
        }
      ]
    }
  ],
  "nodes": [
    {
      "children": [
        1
      ],
      "matrix": [
        1.0,
        0.0,
        0.0,
        0.0,
        0.0,
        2.220446049250313e-16,
        -1.0,
        0.0,
        0.0,
        1.0,
        2.220446049250313e-16,
        0.0,
        0.0,
        0.0,
        0.0,
        1.0
      ],
      "name": "Sketchfab_model"
    },
    {
      "children": [
        2
      ],
      "name": "tinker.obj.cleaner.materialmerger.gles"
    },
    {
      "mesh": 0,
      "name": "Object_2"
    }
  ],
  "scene": 0,
  "scenes": [
    {
      "name": "Sketchfab_Scene",
      "nodes": [
        0
      ]
    }
  ]
}
